<?xml version="1.0" standalone="no"?>
<!DOCTYPE svg PUBLIC "-//W3C//DTD SVG 20010904//EN"
 "http://www.w3.org/TR/2001/REC-SVG-20010904/DTD/svg10.dtd">
<svg version="1.0" xmlns="http://www.w3.org/2000/svg"
 width="498.000000pt" height="278.000000pt" viewBox="0 0 498.000000 278.000000"
 preserveAspectRatio="xMidYMid meet">

<g transform="translate(0.000000,278.000000) scale(0.100000,-0.100000)"
fill="#000000" stroke="none">
<path d="M0 2154 c0 -552 2 -625 15 -620 8 3 15 1 15 -5 0 -5 10 -7 23 -4 12
3 38 7 59 8 20 1 34 5 31 10 -2 4 3 10 11 13 9 3 14 9 11 13 -2 4 2 8 10 8 8
0 11 -5 8 -11 -5 -8 -3 -8 8 0 38 29 108 -8 135 -73 32 -74 9 -133 -56 -150
-30 -8 -35 -14 -38 -41 l-3 -32 -64 0 c-61 0 -64 -1 -83 -32 -11 -18 -22 -54
-25 -80 -8 -60 -33 -121 -47 -113 -7 4 -10 -164 -10 -519 l0 -526 520 0 c502
0 520 1 520 19 0 10 -7 24 -15 31 -21 18 -19 24 14 37 l29 11 -18 76 c-9 42
-15 76 -11 76 25 -2 76 -38 76 -54 0 -14 17 -24 68 -43 l68 -24 64 30 c36 17
72 31 80 31 8 0 13 6 11 13 -1 6 -1 9 1 5 13 -23 31 -3 37 38 11 84 4 106 -35
109 -17 1 -28 12 -38 39 -13 34 -12 40 7 80 12 24 22 50 22 59 0 9 5 27 11 41
9 20 8 33 -5 66 -32 81 -11 160 22 82 14 -33 22 -40 42 -40 14 1 49 -5 76 -12
28 -7 63 -10 78 -6 23 6 27 11 21 29 -3 12 -8 34 -9 48 -1 14 -6 30 -9 36 -5
7 0 9 13 6 14 -4 20 0 20 13 0 9 8 26 17 36 14 16 14 18 1 13 -12 -5 -14 -1
-11 19 3 15 0 38 -6 54 -14 35 -19 107 -7 107 5 0 8 -22 7 -49 l-3 -49 39 6
c21 4 48 7 61 7 17 0 22 6 22 26 0 25 2 24 78 -28 l77 -54 -2 -67 c-3 -76 3
-80 54 -41 24 18 38 23 45 16 14 -14 19 -62 6 -62 -6 0 -6 -6 2 -14 10 -13 16
-10 41 18 16 19 29 39 29 45 0 20 22 12 59 -21 l37 -33 -41 -38 c-26 -25 -32
-34 -17 -27 50 24 125 42 131 31 4 -6 21 -14 39 -17 25 -5 32 -3 32 9 0 9 16
27 36 41 l35 24 -22 21 c-13 12 -26 21 -30 21 -5 0 -31 21 -58 46 -28 25 -57
51 -64 58 -8 6 -20 28 -26 48 -9 27 -22 41 -52 56 -46 23 -74 19 -95 -13 -17
-26 -14 -99 4 -117 17 -17 15 -25 -8 -48 -20 -20 -20 -20 -26 5 -3 14 -9 25
-13 25 -10 0 -30 42 -47 99 l-14 43 37 34 c33 30 37 39 34 75 -2 28 3 47 15
60 12 14 15 23 7 27 -5 4 -9 23 -8 42 2 27 12 43 49 77 27 24 52 43 57 43 5 0
29 -28 54 -62 24 -35 60 -84 80 -110 26 -35 35 -56 35 -86 0 -49 46 -114 138
-198 45 -40 63 -64 68 -89 l6 -35 30 25 c30 25 55 34 43 15 -11 -19 10 -10 25
9 7 11 17 18 22 15 4 -3 8 0 8 5 0 6 5 11 11 11 6 0 8 -9 4 -22 -6 -22 -6 -22
9 -4 9 11 16 26 16 33 0 18 15 16 30 -2 9 -11 16 -13 24 -5 12 12 46 13 46 1
0 -5 13 -12 30 -16 27 -6 30 -10 28 -45 -1 -22 -4 -39 -7 -38 -25 2 -31 -4
-25 -28 5 -19 4 -25 -5 -20 -6 4 -11 3 -11 -3 0 -5 -15 -11 -32 -13 -31 -3
-34 -6 -42 -53 -12 -75 -15 -80 -28 -67 -7 7 -27 12 -45 12 -30 0 -33 -3 -33
-29 0 -18 8 -34 22 -43 20 -13 21 -19 13 -43 -6 -15 -19 -33 -30 -39 -11 -6
-23 -15 -26 -20 -7 -8 -26 19 -28 39 -1 10 -37 11 -76 3 -22 -5 -43 -54 -44
-100 -1 -40 -21 -35 -21 5 0 17 -4 37 -8 42 -11 16 -52 15 -105 -2 -27 -8 -57
-13 -68 -10 -10 3 -22 1 -25 -4 -3 -5 -22 -9 -42 -9 -33 0 -45 -8 -93 -58 -49
-50 -88 -114 -82 -133 1 -4 -12 -6 -30 -5 -22 2 -41 -5 -61 -21 -34 -29 -41
-23 -49 39 -6 45 -5 47 22 53 l29 6 -4 71 c-3 40 -9 77 -14 82 -5 7 -3 18 4
28 19 25 8 78 -18 88 -23 9 -46 -4 -46 -26 0 -8 -4 -14 -8 -14 -12 0 -11 -34
2 -42 6 -4 -5 -21 -27 -42 -39 -37 -45 -51 -24 -59 7 -3 19 -24 27 -47 16 -48
22 -40 -75 -103 -44 -28 -52 -39 -70 -93 -11 -34 -26 -69 -34 -78 -12 -14 -11
-16 11 -16 19 0 30 12 53 55 17 30 33 55 36 55 3 0 18 -25 34 -55 l27 -55 220
0 c121 0 227 4 236 9 9 4 48 11 86 15 62 6 68 5 56 -9 -11 -13 10 -15 203 -15
188 0 216 2 211 15 -4 8 -9 13 -13 10 -10 -6 -97 83 -89 91 4 3 17 0 30 -7 12
-7 28 -14 33 -15 34 -6 168 -50 213 -70 46 -20 71 -24 157 -24 l102 0 16 58
c9 31 18 68 19 81 l3 24 33 -27 c17 -15 32 -25 32 -21 0 10 -40 42 -90 72 -25
15 -66 43 -92 63 -26 19 -83 61 -127 92 -76 55 -80 59 -87 105 -6 40 -8 44
-15 25 -11 -28 -34 -28 -53 0 -23 32 -21 36 27 59 40 20 43 23 39 57 -3 33 -2
35 11 19 17 -21 50 -22 66 -3 10 12 8 20 -10 40 -24 28 -39 26 -39 -7 0 -20 0
-20 -15 -1 -8 10 -15 31 -15 47 0 23 4 27 28 27 27 0 28 2 29 56 1 30 7 61 13
69 9 11 2 24 -34 62 -25 26 -46 44 -46 40 0 -4 9 -16 20 -27 29 -29 25 -37
-22 -42 -29 -3 -49 0 -60 10 -22 18 -23 36 -3 28 11 -4 15 1 15 19 0 13 13 38
29 56 l29 32 19 -44 c45 -103 42 -97 42 -71 1 25 -22 76 -46 104 -14 15 -13
21 6 51 11 19 21 39 21 46 0 16 -36 14 -71 -5 -17 -8 -33 -13 -36 -11 -6 6 38
81 70 120 21 24 27 27 50 18 25 -10 27 -9 17 8 -5 11 -15 21 -22 24 -10 3 -10
7 1 20 7 10 19 17 25 17 23 0 106 104 93 116 -3 4 -20 1 -38 -5 -26 -9 -39 -7
-75 9 -37 16 -44 17 -44 4 0 -8 -7 -29 -16 -45 -8 -17 -18 -49 -20 -72 -3 -23
-12 -49 -19 -57 -8 -8 -17 -42 -20 -75 -4 -33 -11 -65 -16 -71 -5 -6 -6 -14
-2 -17 3 -4 -2 -7 -13 -7 -16 0 -19 8 -22 55 -2 56 9 91 36 111 11 8 12 16 5
28 -8 15 -11 14 -22 -11 l-13 -28 -12 30 c-7 17 -21 37 -31 45 -15 13 -19 12
-30 -3 -12 -17 -35 -23 -35 -9 0 4 16 32 35 62 19 30 35 59 35 66 0 7 -22 15
-52 19 -46 7 -54 5 -70 -15 -10 -12 -18 -28 -18 -35 0 -20 -73 -87 -123 -115
-45 -24 -46 -24 -67 -5 -12 10 -28 20 -36 21 -22 3 -81 50 -106 84 -12 16 -25
27 -30 24 -8 -5 -65 34 -60 42 10 17 -49 54 -88 54 -49 0 -220 -113 -228 -151
-2 -8 -13 -34 -24 -58 -24 -49 -15 -63 34 -59 15 2 28 1 29 -2 0 -3 -3 -33 -7
-68 -8 -76 -25 -81 -50 -15 -10 27 -30 60 -46 75 l-28 28 26 37 c20 30 23 39
11 41 -11 2 -13 10 -8 30 13 50 3 69 -49 91 -27 12 -53 21 -58 21 -4 0 -26 16
-48 35 -21 19 -42 35 -46 35 -14 0 -48 -69 -48 -96 0 -17 10 -40 24 -55 37
-40 112 -99 125 -99 7 0 9 -4 6 -10 -11 -18 -60 -11 -97 15 -44 29 -46 30 -50
9 -2 -11 -14 0 -36 31 -18 26 -36 44 -39 41 -3 -3 2 -14 11 -25 12 -13 14 -21
6 -26 -5 -3 -7 -11 -4 -17 4 -6 2 -8 -4 -4 -15 9 -64 -15 -58 -30 3 -7 6 -54
7 -103 1 -79 4 -91 21 -97 25 -8 50 -47 42 -68 -3 -9 -8 -16 -11 -16 -9 0 -78
51 -78 58 0 4 -4 6 -10 4 -31 -11 -80 -11 -92 0 -13 10 -14 6 -12 -28 5 -69
-1 -144 -10 -144 -5 0 -16 7 -25 15 -19 19 -113 20 -135 2 -9 -7 -36 -19 -61
-26 -25 -8 -58 -17 -74 -22 -27 -8 -86 -13 -86 -6 0 1 -8 25 -18 52 -11 31
-17 67 -14 93 3 27 -2 56 -11 75 -9 18 -18 43 -21 57 -5 22 -45 55 -71 57 -5
0 -17 16 -25 36 -13 29 -19 33 -38 26 -12 -5 -22 -16 -22 -26 0 -15 -2 -14
-16 5 -14 20 -13 26 6 69 12 27 25 59 30 73 10 35 99 170 116 177 7 3 23 20
34 37 19 32 20 33 69 23 39 -9 55 -7 81 5 25 12 39 13 65 5 27 -8 39 -7 59 7
26 16 31 38 26 110 -1 15 2 26 7 23 6 -4 19 1 31 9 23 16 36 66 35 127 -1 28
3 40 18 48 26 14 41 2 64 -53 36 -87 67 -148 73 -148 13 1 43 28 40 37 -2 4 9
9 24 11 27 3 27 3 22 75 -5 80 15 137 52 144 71 16 69 16 87 -23 l18 -37 20
32 c11 18 23 30 27 27 4 -2 9 5 9 16 2 20 1 20 -12 2 -8 -11 -15 -14 -15 -8 0
6 6 17 14 23 23 19 47 -29 50 -101 0 -9 3 -15 7 -12 4 2 10 -4 13 -13 8 -26
46 -47 59 -34 6 6 35 82 64 169 50 147 53 153 48 97 -8 -106 13 -14 36 155 19
145 30 195 29 139 -1 -13 -9 -95 -18 -181 -10 -86 -14 -154 -10 -152 4 3 9 13
10 22 1 9 5 -21 8 -68 4 -47 9 -94 11 -105 6 -29 44 -56 79 -57 17 -1 33 -5
36 -10 3 -5 13 -3 22 4 15 11 15 11 6 -2 -7 -10 -7 -36 -1 -78 9 -65 21 -77
19 -20 0 20 2 27 7 19 7 -11 13 -10 33 3 30 20 55 12 61 -17 3 -18 5 -17 6 6
0 15 5 27 11 27 6 0 6 10 -1 27 -14 37 -6 51 37 59 26 5 56 0 103 -15 38 -12
75 -19 85 -15 16 6 18 3 14 -28 -3 -31 0 -37 24 -47 15 -7 28 -19 28 -27 0 -9
5 -12 11 -9 6 4 8 14 5 22 -8 19 33 103 50 103 7 0 10 -9 7 -22 -4 -18 -2 -20
6 -8 17 25 25 2 7 -24 -19 -29 -7 -41 36 -38 30 2 37 -15 16 -36 -6 -6 -8 -15
-5 -19 4 -4 15 3 23 16 l16 22 14 -26 c8 -15 11 -32 7 -39 -4 -6 1 -5 10 3 17
13 24 3 10 -15 -5 -5 2 2 14 16 13 14 23 32 23 41 0 18 -33 59 -48 59 -9 0
-22 32 -22 59 0 10 3 11 13 3 8 -7 18 -7 27 -2 13 9 13 10 0 10 -13 0 -13 1 0
11 12 9 11 10 -7 6 -21 -5 -21 -5 -3 28 10 18 17 36 14 39 -2 4 3 0 12 -7 8
-8 17 -28 19 -46 8 -61 28 -70 103 -41 17 6 32 16 32 22 0 5 4 7 9 4 10 -6 20
14 27 53 12 60 58 103 83 78 14 -14 48 21 57 60 4 15 14 39 22 51 9 13 19 40
23 60 5 27 7 12 9 -58 1 -91 2 -94 15 -60 l13 35 1 -40 c1 -23 -8 -55 -19 -75
l-21 -35 23 27 23 27 1 -87 c0 -72 4 -95 25 -133 18 -35 29 -45 46 -44 12 1
20 -2 17 -7 -3 -5 17 -7 45 -5 50 3 64 -6 41 -29 -16 -16 7 -153 31 -189 31
-45 160 -138 173 -125 5 5 27 10 47 10 34 0 40 4 63 46 14 26 26 56 26 68 0
11 3 31 6 42 6 21 11 22 143 21 93 -1 147 3 169 12 27 12 35 11 56 -3 14 -8
27 -24 30 -34 10 -31 64 -44 131 -31 32 6 69 18 82 26 30 20 36 14 37 -42 1
-32 -3 -45 -13 -45 -10 0 -12 -9 -7 -36 5 -23 3 -41 -6 -52 -8 -10 -9 -13 -1
-9 7 4 18 -2 27 -15 18 -26 20 -38 6 -38 -5 0 -9 3 -9 8 5 29 -2 34 -21 17
-22 -20 -26 -35 -10 -35 5 0 9 5 7 11 -1 6 3 13 10 16 8 3 11 -3 8 -17 -2 -11
-1 -18 3 -16 11 6 9 -36 -2 -53 -6 -9 -5 -12 1 -8 6 4 14 0 17 -9 3 -8 2 -13
-3 -10 -5 3 -12 -1 -15 -10 -3 -8 -2 -13 3 -9 13 7 17 -10 13 -56 -3 -26 -8
-37 -16 -32 -6 4 -5 -1 3 -10 14 -17 26 -24 17 -9 -3 5 1 9 9 9 10 0 12 -4 5
-12 -5 -7 -6 -15 -2 -20 4 -4 -3 -3 -14 3 -21 11 -21 10 -11 -13 11 -22 13
-23 32 -7 15 13 15 11 -3 -9 -12 -14 -20 -28 -17 -31 3 -2 -3 -5 -13 -5 -9 0
-20 5 -25 11 -4 6 -6 0 -5 -14 2 -18 -2 -25 -14 -25 -10 0 -18 -5 -19 -10 -3
-38 -59 -51 -107 -26 -12 6 -22 8 -22 4 0 -4 -8 1 -18 13 -21 25 -145 114
-160 114 -15 0 -24 17 -29 57 -7 51 -51 141 -73 148 -10 3 -23 19 -29 35 -5
17 -17 30 -25 30 -19 0 -56 -45 -79 -96 -12 -27 -34 -51 -63 -69 -82 -52 -94
-70 -94 -139 0 -50 -4 -63 -20 -74 -12 -7 -20 -23 -20 -38 0 -23 3 -25 24 -20
19 5 25 1 28 -17 3 -13 -2 -29 -11 -38 -14 -13 -13 -14 7 -17 28 -4 28 -14 -4
-51 -16 -20 -23 -37 -19 -50 4 -14 -1 -20 -21 -25 -15 -4 -32 -2 -37 3 -18 18
-54 12 -86 -15 -28 -23 -79 -44 -108 -44 -7 0 -13 11 -13 25 0 14 -9 51 -20
82 -11 32 -20 74 -20 95 0 20 -4 39 -9 42 -5 3 -7 16 -5 29 4 21 4 21 -6 -2
-14 -32 -23 -21 -10 13 13 34 13 56 0 56 -5 0 -10 -16 -10 -35 0 -19 -4 -35
-9 -35 -5 0 -7 19 -5 43 3 39 3 40 -5 9 -12 -46 -21 -51 -21 -14 0 18 -4 32
-10 32 -5 0 -10 -16 -10 -35 0 -19 -4 -35 -10 -35 -5 0 -10 8 -10 18 0 10 -6
25 -12 34 -11 14 -21 15 -65 6 -33 -7 -53 -16 -53 -24 0 -8 -4 -14 -10 -14 -5
0 -10 -9 -10 -20 0 -11 -6 -20 -14 -20 -14 0 -26 -21 -26 -43 0 -7 12 -25 26
-40 23 -28 26 -28 49 -13 28 19 44 4 23 -21 -10 -13 -6 -12 14 2 15 11 28 25
28 30 0 6 12 18 26 29 l26 19 -7 -34 c-9 -43 -13 -49 -30 -49 -7 0 -16 -6 -18
-12 -4 -10 -6 -10 -6 0 -1 9 -10 7 -32 -9 -34 -24 -52 -59 -38 -73 5 -6 4 -15
-2 -22 -8 -9 -6 -11 8 -8 14 4 23 -7 41 -46 21 -45 22 -55 11 -82 -12 -29 -11
-32 19 -57 24 -20 32 -34 32 -59 0 -30 2 -32 20 -22 18 9 28 5 67 -29 25 -23
53 -41 61 -41 9 0 37 23 63 51 l47 51 58 -7 c33 -4 70 -14 82 -22 22 -13 22
-16 8 -32 -9 -10 -16 -25 -16 -34 0 -19 -23 -61 -67 -126 l-31 -45 44 -28 c26
-16 44 -35 44 -46 0 -11 11 -31 25 -46 14 -15 25 -31 25 -37 0 -6 77 -8 203
-7 l202 3 0 149 c0 105 3 150 12 153 7 3 9 -3 6 -16 -3 -12 -2 -37 1 -56 6
-33 9 -35 45 -35 31 0 40 4 44 21 6 21 6 21 37 3 20 -13 28 -23 24 -34 -14
-32 -24 -117 -18 -152 l6 -38 384 0 384 0 -2 475 c-2 308 -7 475 -13 475 -5 0
-10 -3 -10 -7 -1 -5 -11 -24 -23 -43 -12 -19 -24 -39 -26 -45 -7 -19 -27 12
-42 66 -8 30 -18 65 -22 79 -21 75 4 271 40 317 5 7 7 17 3 23 -3 5 -2 10 3
10 5 0 21 27 36 60 14 34 33 63 41 66 13 5 15 93 15 655 l0 649 -2490 0 -2490
0 0 -626z m1750 248 c0 -15 -2 -15 -10 -2 -13 20 -13 33 0 25 6 -3 10 -14 10
-23z m1536 -107 c-4 -42 -11 -86 -16 -98 -8 -21 -9 -20 -9 6 -1 36 20 167 27
167 3 0 2 -34 -2 -75z m-1229 -37 c-3 -8 -6 -5 -6 6 -1 11 2 17 5 13 3 -3 4
-12 1 -19z m404 -80 c1 -7 1 -16 0 -20 0 -5 6 -8 14 -8 39 0 63 -149 27 -169
-9 -5 -13 -17 -10 -28 4 -16 1 -19 -17 -15 -16 3 -25 13 -29 34 -4 19 -14 32
-27 35 -15 4 -19 11 -15 27 2 11 8 42 11 69 4 26 12 50 18 54 6 4 7 1 2 -7 -5
-8 -4 -11 3 -7 5 4 8 16 5 27 -3 11 0 20 6 20 6 0 12 -6 12 -12z m1144 -128
c-3 -5 -1 -19 5 -30 8 -15 8 -20 -2 -20 -9 0 -9 -3 2 -10 12 -8 12 -10 1 -10
-10 0 -11 -3 -2 -13 14 -18 8 -114 -9 -130 -10 -9 -13 -9 -17 1 -3 6 -11 12
-18 12 -25 0 -25 16 -1 94 13 42 22 76 20 76 -3 0 0 9 6 20 6 11 13 20 16 20
3 0 2 -4 -1 -10z m-2872 -255 c24 -33 11 -53 -14 -21 -19 25 -25 46 -11 46 4
0 15 -12 25 -25z m3776 -219 c10 -11 9 -16 -5 -24 -13 -7 -15 -17 -10 -38 8
-35 9 -41 5 -75 -4 -36 -24 -26 -27 12 -1 17 -6 39 -11 48 -5 9 -7 21 -6 26 2
6 6 22 9 38 7 29 27 35 45 13z m71 -89 c-1 -22 -36 -74 -45 -65 -2 2 -6 21 -9
42 -4 31 -1 38 17 45 28 11 37 5 37 -22z m-133 -99 c-9 -6 -8 -8 2 -8 8 0 12
-3 8 -6 -11 -12 -25 6 -20 27 4 15 8 17 14 8 5 -8 3 -17 -4 -21z m-1467 -142
c0 -17 -33 -27 -51 -15 -12 7 -11 9 1 10 8 1 18 1 23 0 4 0 7 4 7 9 0 6 5 10
10 10 6 0 10 -6 10 -14z m-248 -96 c5 0 8 5 8 10 0 6 9 10 20 10 14 0 28 -17
50 -60 16 -33 30 -65 30 -73 0 -7 -26 -39 -58 -70 l-58 -58 -25 63 c-29 72
-30 73 -139 40 -63 -19 -66 -19 -101 -1 -45 22 -69 49 -45 49 9 0 16 6 16 14
0 8 5 18 12 22 7 5 9 2 4 -7 -4 -8 -1 -7 5 2 11 15 15 14 37 -10 13 -14 20
-19 15 -11 -11 17 -25 65 -16 56 3 -3 12 1 20 9 8 8 22 15 32 15 10 0 26 9 36
20 14 15 21 17 26 8 6 -9 11 -9 22 1 12 9 16 9 20 -1 3 -9 12 -3 27 16 l23 28
16 -36 c9 -20 19 -36 23 -36z m-2022 -40 c6 0 10 -7 10 -15 0 -8 -7 -15 -15
-15 -17 0 -20 -25 -5 -35 6 -3 10 -22 10 -42 0 -30 -2 -34 -15 -23 -8 6 -14
19 -12 28 1 10 -7 43 -17 74 -17 49 -17 59 -5 74 12 15 15 14 26 -15 7 -17 18
-31 23 -31z m1250 -79 c0 -14 -5 -33 -10 -41 -8 -13 -10 -12 -10 3 0 10 -4 15
-10 12 -5 -3 -10 1 -10 9 0 8 5 18 11 21 6 4 8 13 5 21 -3 8 0 11 10 7 7 -3
14 -17 14 -32z m-336 -43 c4 -17 2 -28 -4 -28 -5 0 -10 14 -10 32 0 36 4 35
14 -4z m-944 -159 c0 -16 -4 -28 -9 -25 -8 5 -3 56 5 56 2 0 4 -14 4 -31z
m1600 27 c0 -3 -4 -8 -10 -11 -5 -3 -10 -1 -10 4 0 6 5 11 10 11 6 0 10 -2 10
-4z m860 -15 c0 -6 -4 -13 -10 -16 -5 -3 -10 1 -10 9 0 9 5 16 10 16 6 0 10
-4 10 -9z m1320 -55 c0 -3 -4 -8 -10 -11 -5 -3 -10 -1 -10 4 0 6 5 11 10 11 6
0 10 -2 10 -4z m-2113 -53 c-3 -10 -5 -4 -5 12 0 17 2 24 5 18 2 -7 2 -21 0
-30z m2100 -20 c-3 -10 -5 -2 -5 17 0 19 2 27 5 18 2 -10 2 -26 0 -35z m-3776
-51 c-6 -11 -7 -23 -3 -28 4 -5 0 -3 -9 4 -9 6 -20 8 -25 4 -5 -4 2 5 15 20
27 31 38 31 22 0z m3719 -87 c0 -5 -5 -3 -10 5 -8 13 -10 13 -10 -2 0 -9 9
-23 19 -30 14 -10 17 -18 10 -28 -7 -12 -9 -11 -10 5 l0 20 -9 -20 c-5 -11 -9
-14 -9 -7 -1 6 -6 12 -12 12 -5 0 -7 -6 -3 -12 5 -10 4 -10 -5 -2 -8 8 -9 18
-2 35 5 13 12 33 16 44 5 16 8 17 15 5 6 -8 10 -19 10 -25z m-593 -17 c-3 -8
-6 -5 -6 6 -1 11 2 17 5 13 3 -3 4 -12 1 -19z m38 -80 c17 -23 47 -61 68 -86
21 -24 35 -47 32 -50 -3 -4 -9 -2 -13 4 -4 6 -17 16 -29 23 -19 10 -23 9 -23
-4 0 -11 -7 -15 -22 -13 -18 2 -25 15 -39 68 -30 111 -23 126 26 58z m562 0
c-3 -8 -6 -5 -6 6 -1 11 2 17 5 13 3 -3 4 -12 1 -19z m-1437 -52 c0 -7 -7 -21
-15 -32 -15 -18 -15 -18 -8 0 4 13 3 17 -4 13 -12 -8 -12 11 0 31 10 14 27 7
27 -12z m1361 1 c-1 -4 -1 -14 -1 -22 0 -8 -9 -15 -19 -15 -11 0 -21 -8 -24
-17 -3 -15 -6 -14 -14 7 -10 22 -8 26 13 34 13 6 24 14 24 19 0 5 5 7 11 5 6
-2 10 -7 10 -11z m-1547 -63 c5 -19 13 -25 29 -23 23 3 46 -17 157 -134 35
-37 61 -69 58 -72 -3 -3 -50 13 -104 35 -77 31 -98 43 -97 57 3 16 2 17 -9 2
-11 -15 -15 -15 -54 -1 -40 15 -44 15 -62 -1 -16 -14 -21 -15 -37 -3 -17 12
-17 14 4 35 12 12 31 43 42 69 11 25 25 52 30 59 15 17 36 6 43 -23z m1646 -5
c0 -11 -4 -18 -10 -14 -5 3 -7 12 -3 20 7 21 13 19 13 -6z m-632 -8 c3 -8 -1
-12 -9 -9 -7 2 -15 10 -17 17 -3 8 1 12 9 9 7 -2 15 -10 17 -17z m-2862 -23
c17 -19 17 -21 2 -15 -16 6 -18 -1 -18 -51 -1 -70 -15 -52 -25 31 -7 64 6 75
41 35z m1339 -84 l0 -77 -45 -13 c-83 -25 -171 -46 -176 -42 -2 3 4 14 13 25
17 18 201 183 206 183 1 0 2 -34 2 -76z m800 22 c11 -7 44 -21 73 -31 65 -23
68 -49 9 -73 -38 -15 -38 -15 -74 19 -19 19 -49 51 -66 73 l-31 38 35 -7 c19
-4 43 -13 54 -19z m-1210 -45 c3 -5 1 -12 -4 -15 -5 -3 -11 1 -15 9 -6 16 9
21 19 6z"/>
<path d="M3580 1971 c0 -6 4 -13 10 -16 6 -3 7 1 4 9 -7 18 -14 21 -14 7z"/>
<path d="M2006 2045 c-3 -9 -5 -29 -5 -43 1 -20 3 -17 9 13 8 43 7 57 -4 30z"/>
<path d="M2370 1870 c0 -5 5 -10 11 -10 5 0 7 5 4 10 -3 6 -8 10 -11 10 -2 0
-4 -4 -4 -10z"/>
<path d="M2438 1862 c-18 -4 -20 -18 -9 -62 5 -22 9 -24 26 -15 18 9 20 14 10
45 -7 26 -15 35 -27 32z"/>
<path d="M2133 1797 c-13 -6 -23 -19 -23 -31 0 -20 1 -20 16 2 9 13 22 21 30
18 8 -3 14 -1 14 4 0 15 -14 18 -37 7z"/>
<path d="M3024 1761 c-26 -16 -31 -24 -27 -45 5 -22 10 -26 43 -26 35 0 38 2
43 37 10 58 -5 67 -59 34z"/>
<path d="M2343 1749 c-8 -8 -4 -17 12 -35 27 -29 40 -31 25 -5 -16 31 -12 37
10 13 12 -12 26 -22 32 -22 7 0 -1 14 -17 30 -31 32 -45 36 -62 19z"/>
<path d="M2495 1750 c3 -5 8 -10 11 -10 2 0 4 5 4 10 0 6 -5 10 -11 10 -5 0
-7 -4 -4 -10z"/>
<path d="M2631 1709 c-13 -11 -30 -18 -37 -15 -7 3 -27 -3 -44 -12 -17 -9 -46
-25 -63 -34 l-32 -17 38 -1 c37 0 106 28 139 57 9 8 22 12 27 8 6 -3 11 -1 11
4 0 6 -5 11 -11 11 -5 0 -7 5 -4 10 9 15 3 12 -24 -11z"/>
<path d="M2710 1702 c0 -34 32 -67 55 -58 9 3 13 2 10 -4 -3 -6 -1 -10 4 -10
6 0 11 5 11 11 0 5 4 8 9 5 5 -3 11 1 15 9 3 8 1 15 -5 15 -6 0 -7 4 -4 10 7
11 -52 50 -77 50 -13 0 -18 -8 -18 -28z"/>
<path d="M2330 1706 c0 -8 7 -16 15 -20 17 -6 18 -4 9 18 -8 20 -24 21 -24 2z"/>
<path d="M2350 1590 c-18 -33 -3 -60 31 -60 37 0 69 -16 69 -35 0 -17 -30 -35
-59 -35 -12 0 -21 -4 -21 -10 0 -13 45 -24 70 -17 12 3 24 -1 30 -11 8 -15 11
-15 20 -2 25 37 -10 104 -61 114 -42 8 -68 32 -62 57 7 25 -3 24 -17 -1z"/>
<path d="M1525 1550 c5 -7 12 -27 16 -44 7 -29 8 -29 6 8 -1 24 -8 41 -16 44
-9 3 -11 0 -6 -8z"/>
<path d="M2593 1542 c-24 -9 -43 -20 -43 -25 0 -5 8 -6 18 -2 9 4 30 10 46 14
16 4 31 12 34 19 5 15 -1 14 -55 -6z"/>
<path d="M4271 1469 c-46 -33 -48 -43 -9 -72 23 -18 27 -18 55 -3 17 8 33 22
36 29 5 12 -26 77 -36 77 -2 0 -23 -14 -46 -31z"/>
<path d="M2755 1460 c28 -12 55 -12 55 0 0 6 -17 10 -37 9 -31 0 -34 -2 -18
-9z"/>
<path d="M2620 1451 c-18 -5 -21 -9 -11 -15 8 -5 19 -2 29 8 9 9 14 16 12 15
-3 -1 -16 -4 -30 -8z"/>
<path d="M1136 1437 c-15 -11 -17 -21 -10 -62 10 -70 60 -114 100 -87 18 12 2
107 -23 136 -26 29 -41 32 -67 13z"/>
<path d="M1560 1414 c0 -6 7 -19 15 -30 8 -10 14 -14 14 -9 0 6 -6 19 -14 29
-8 11 -15 15 -15 10z"/>
<path d="M3255 1390 c-3 -5 1 -10 9 -10 17 0 31 -18 21 -28 -3 -3 -10 0 -15 8
-8 13 -10 13 -10 1 0 -11 -4 -9 -15 5 -15 19 -15 19 -8 -1 10 -33 23 -43 44
-38 27 7 31 18 18 47 -12 27 -33 34 -44 16z"/>
<path d="M1496 1353 c-6 -14 -5 -15 5 -6 7 7 10 15 7 18 -3 3 -9 -2 -12 -12z"/>
<path d="M3820 1339 c0 -5 5 -7 10 -4 6 3 10 8 10 11 0 2 -4 4 -10 4 -5 0 -10
-5 -10 -11z"/>
<path d="M1251 1307 c-15 -38 -15 -50 -3 -78 9 -22 15 -25 41 -21 27 4 31 8
30 36 -1 29 -16 90 -18 73 -1 -4 -10 -3 -21 3 -17 9 -22 7 -29 -13z"/>
<path d="M4403 1283 c-8 -3 -9 -12 -3 -28 5 -12 6 -26 2 -31 -4 -4 -1 -4 6 0
8 5 10 16 6 28 -4 13 -2 18 4 14 6 -3 14 -1 18 5 4 7 3 9 -4 5 -5 -3 -12 -2
-14 2 -1 5 -8 7 -15 5z"/>
<path d="M3065 1230 c-3 -6 -1 -10 6 -10 7 0 21 -7 31 -17 10 -9 18 -11 18 -6
0 16 -48 45 -55 33z"/>
<path d="M3041 1194 c-7 -8 -10 -18 -6 -22 3 -3 10 0 15 8 7 12 12 11 32 -5
22 -19 22 -19 -1 8 -14 15 -25 27 -25 27 -1 -1 -7 -8 -15 -16z"/>
<path d="M1106 1176 c23 -158 25 -166 49 -166 14 0 34 -13 50 -31 l26 -32 29
34 c25 29 29 43 30 90 0 61 -14 83 -49 77 -11 -2 -26 5 -34 16 -8 11 -32 21
-59 25 -41 7 -44 6 -42 -13z"/>
<path d="M1330 1193 c1 -21 15 -30 27 -18 10 10 9 14 -3 19 -20 8 -24 8 -24
-1z"/>
<path d="M3118 1168 c-2 -7 -1 -35 3 -63 l6 -50 1 63 c2 59 -1 76 -10 50z"/>
<path d="M4426 1145 c-3 -8 -1 -15 4 -15 6 0 10 7 10 15 0 8 -2 15 -4 15 -2 0
-6 -7 -10 -15z"/>
<path d="M991 997 c-8 -10 -6 -24 6 -55 13 -34 23 -44 52 -52 45 -12 55 -2 46
49 -6 36 -11 43 -36 48 -16 3 -32 10 -35 14 -8 13 -20 11 -33 -4z"/>
<path d="M1708 843 c7 -3 16 -2 19 1 4 3 -2 6 -13 5 -11 0 -14 -3 -6 -6z"/>
<path d="M1702 790 c0 -14 2 -19 5 -12 2 6 2 18 0 25 -3 6 -5 1 -5 -13z"/>
<path d="M2011 724 c0 -11 3 -14 6 -6 3 7 2 16 -1 19 -3 4 -6 -2 -5 -13z"/>
<path d="M1650 726 c0 -2 7 -9 15 -16 9 -7 15 -8 15 -2 0 5 -7 12 -15 16 -8 3
-15 4 -15 2z"/>
<path d="M2636 721 c-11 -17 -68 -25 -77 -10 -6 10 -9 11 -9 2 0 -9 -18 -13
-55 -13 -43 0 -56 -4 -64 -19 -16 -29 -30 -101 -20 -101 13 0 173 56 198 69
12 7 21 20 21 29 0 10 5 23 12 30 6 6 9 14 6 17 -3 4 -9 2 -12 -4z"/>
<path d="M1877 633 c-4 -3 -7 -11 -7 -17 0 -6 5 -5 12 2 6 6 9 14 7 17 -3 3
-9 2 -12 -2z"/>
<path d="M2180 606 c0 -15 6 -26 14 -26 17 0 16 42 -1 48 -8 2 -13 -6 -13 -22z"/>
<path d="M1715 607 c-11 -9 -15 -19 -10 -27 5 -9 4 -11 -3 -6 -7 4 -12 4 -12
-1 1 -29 50 -48 76 -29 12 9 15 20 9 44 -7 35 -28 41 -60 19z"/>
<path d="M1960 609 c0 -8 14 -29 31 -47 20 -22 29 -40 26 -53 -6 -21 18 -39
52 -39 12 0 21 -4 21 -10 0 -5 6 -10 14 -10 8 0 16 -4 18 -8 2 -4 17 -17 33
-28 24 -16 41 -19 87 -14 68 6 77 13 53 40 -13 14 -21 17 -31 9 -8 -7 -14 -7
-19 1 -3 5 -1 10 4 10 6 0 11 9 11 21 0 11 -4 17 -10 14 -6 -4 -7 1 -3 11 5
14 3 16 -11 11 -10 -4 -20 -7 -22 -7 -2 0 -4 -16 -4 -35 0 -33 -1 -34 -18 -17
-9 9 -18 31 -20 47 -1 17 -7 44 -12 61 -10 29 -15 32 -68 38 -31 3 -74 9 -94
12 -29 5 -38 3 -38 -7z"/>
<path d="M2350 600 c0 -5 7 -10 16 -10 8 0 12 5 9 10 -3 6 -10 10 -16 10 -5 0
-9 -4 -9 -10z"/>
<path d="M3000 543 c0 -15 2 -16 10 -3 5 8 12 11 16 7 4 -3 2 -13 -5 -21 -9
-11 -7 -15 11 -19 34 -9 41 3 17 29 -26 28 -49 31 -49 7z"/>
<path d="M1515 530 c-10 -11 -15 -20 -10 -20 4 0 0 -11 -9 -25 -20 -30 -20
-39 -2 -32 8 3 17 -1 20 -9 7 -17 40 -18 54 -1 24 30 24 58 1 83 -27 29 -31
29 -54 4z"/>
<path d="M3095 529 c-10 -15 3 -25 16 -12 7 7 7 13 1 17 -6 3 -14 1 -17 -5z"/>
<path d="M1678 493 c7 -3 16 -2 19 1 4 3 -2 6 -13 5 -11 0 -14 -3 -6 -6z"/>
<path d="M1600 439 c0 -5 5 -7 10 -4 6 3 10 8 10 11 0 2 -4 4 -10 4 -5 0 -10
-5 -10 -11z"/>
<path d="M1690 376 c7 -7 13 -7 20 0 6 6 3 10 -10 10 -13 0 -16 -4 -10 -10z"/>
<path d="M3400 320 c-26 -14 -14 -85 16 -99 37 -16 62 -13 74 8 14 27 13 81
-2 85 -35 11 -75 14 -88 6z"/>
<path d="M3379 87 c9 -11 12 -30 8 -55 -5 -25 -3 -32 3 -22 15 24 11 66 -7 81
-16 13 -17 12 -4 -4z"/>
</g>
</svg>
